<svg width="150" height="41" viewBox="0 0 150 41" fill="none" xmlns="http://www.w3.org/2000/svg">
<path fill-rule="evenodd" clip-rule="evenodd" d="M36.9758 8.25327C42.3723 7.45379 40.6401 2.42373 39.2243 0.00864688C38.5795 2.42678 35.7242 3.05706 33.595 3.07931C32.6886 3.08879 31.8204 2.78685 30.9835 2.439C25.9254 0.336805 19.5043 -0.0681658 16.739 0.00864688C8.54441 0.00864688 4.99673 8.25326 5.24657 11.751H3.99738C2.89354 11.751 1.99869 12.6458 1.99869 13.7497V14.9988H0.999346C0.447422 14.9988 0 15.4463 0 15.9982V16.4979C0 17.0498 0.447422 17.4972 0.999346 17.4972H1.99869V26.2415C1.99869 27.3453 2.89354 28.2402 3.99738 28.2402H5.99608V29.7392C5.99608 34.1546 9.57545 37.734 13.9908 37.734H31.2296C35.6449 37.734 39.2243 34.1546 39.2243 29.7392V28.2402H41.7227C42.8265 28.2402 43.7214 27.3453 43.7214 26.2415V17.4972H44.7207C45.2727 17.4972 45.7201 17.0498 45.7201 16.4979V15.9982C45.7201 15.4463 45.2727 14.9988 44.7207 14.9988H43.7214V13.4998C43.7214 12.396 42.8265 11.5011 41.7227 11.5011H39.2243C39.2243 10.5018 37.8086 9.00277 36.9758 8.25327ZM4.99673 24.4926C4.99673 25.0446 5.44415 25.492 5.99608 25.492H16.4892C17.0411 25.492 17.4886 25.0446 17.4886 24.4926V15.4985C17.4886 14.9466 17.0411 14.4992 16.4892 14.4992H5.99608C5.44415 14.4992 4.99673 14.9466 4.99673 15.4985V24.4926ZM28.4814 24.4926C28.4814 25.0446 28.9288 25.492 29.4807 25.492H39.9738C40.5258 25.492 40.9732 25.0446 40.9732 24.4926V15.4985C40.9732 14.9466 40.5258 14.4992 39.9738 14.4992H29.4807C28.9288 14.4992 28.4814 14.9466 28.4814 15.4985V24.4926Z" fill="white"/>
<path fill-rule="evenodd" clip-rule="evenodd" d="M61.9594 1.00801H64.9575V14.9988H68.2054V17.4972H64.9575V23.4933H61.9594V17.4972H51.4663V14.9988L61.9594 1.00801ZM61.9594 5.25523V14.9988H55.2139L61.9594 5.25523Z" fill="white"/>
<path d="M81.9447 14.9988V12.5005H88.9404V21.2448C75.4506 27.4907 69.7044 18.9962 69.7044 12.5005C69.7044 -2.88945 86.4433 0.258506 88.9401 4.00603L86.9414 6.00472C78.6968 0.508335 73.2021 6.50441 73.2021 12.5005C73.2021 21.2448 81.9462 21.1615 85.9436 19.4959V14.9988H81.9447Z" fill="white"/>
<path fill-rule="evenodd" clip-rule="evenodd" d="M105.431 15.4985H94.4382C94.4382 21.8943 100.767 20.8284 103.932 19.4959L105.431 20.9949C98.6854 25.7418 91.4401 21.4946 91.4401 15.7484C91.4401 9.55241 96.187 7.58703 98.4356 7.50376C105.231 7.50376 105.931 12.8336 105.431 15.4985ZM94.9379 13.4998H102.683V13.3749C102.683 11.2362 100.949 9.50245 98.8103 9.50245C96.6716 9.50245 94.9379 11.2362 94.9379 13.3749V13.4998Z" fill="white"/>
<path fill-rule="evenodd" clip-rule="evenodd" d="M110.428 15.4985H121.421C121.92 12.8336 121.221 7.50376 114.425 7.50376C112.177 7.58703 107.43 9.55241 107.43 15.7484C107.43 21.4946 114.675 25.7418 121.421 20.9949L119.922 19.4959C116.757 20.8284 110.428 21.8943 110.428 15.4985ZM118.672 13.4998H110.927V13.3749C110.927 11.2362 112.661 9.50245 114.8 9.50245C116.939 9.50245 118.672 11.2362 118.672 13.3749V13.4998Z" fill="white"/>
<path fill-rule="evenodd" clip-rule="evenodd" d="M106.877 34.4474H101.306C101.435 37.2631 104.446 37.2256 105.945 36.2263L106.814 37.1257C104.193 39.801 99.6994 38.225 99.4493 34.587C99.2119 31.1332 101.969 30.0269 103.163 29.9804C106.771 29.9804 107.142 32.9584 106.877 34.4474ZM101.306 33.3306H105.418V33.1529C105.418 32.0175 104.497 31.0971 103.362 31.0971C102.227 31.0971 101.306 32.0175 101.306 33.1529V33.3306Z" fill="white"/>
<path d="M127.417 0.508334H124.419V22.9936H127.417V15.9982H128.416L134.162 22.9936H137.66L130.914 14.2493L137.41 7.75359H133.912L128.416 13.4998H127.417V0.508334Z" fill="white"/>
<path d="M148.403 11.0015L149.902 9.00281C147.792 7.66018 143.621 5.96413 140.892 8.2331C138.943 9.85448 138.511 12.524 140.117 14.486C140.832 15.3583 142.287 15.8191 143.534 16.2139C143.877 16.3228 144.205 16.4267 144.498 16.5328C145.49 16.8931 146.385 17.4082 146.749 18.0894C147.832 20.1123 144.096 21.6089 141.973 20.7379C141.364 20.4879 140.807 20.0942 140.408 19.496L138.409 21.4947C139.329 22.5558 141.931 24.1218 145.757 23.2214C147.224 22.8761 148.635 22.1011 149.369 20.7845C149.94 19.7609 150.245 18.4646 149.755 17.1331C149.079 15.2915 146.984 14.6141 145.104 14.0065L144.952 13.9571C143.011 13.3283 141.415 12.4046 142.407 10.7517C143.156 9.50245 145.005 8.60306 148.403 11.0015Z" fill="white"/>
<path fill-rule="evenodd" clip-rule="evenodd" d="M63.7083 38.7247L67.9555 27.482H70.204L74.4513 38.7247H72.2027L71.2034 35.7266H66.9562L65.9568 38.7247H63.7083ZM67.4558 34.2276L69.2047 29.2309L70.9536 34.2276H67.4558Z" fill="white"/>
<path d="M80.3168 30.1413C81.1547 30.3804 81.8985 30.8751 82.446 31.5573L81.1335 32.6263C80.8052 32.2171 80.3591 31.9205 79.8566 31.7771C79.3541 31.6336 78.8199 31.6505 78.3273 31.8252C77.8347 32 77.4079 32.3242 77.1056 32.7531C76.8032 33.1821 76.6402 33.6948 76.6388 34.2209C76.6374 34.747 76.7978 35.2606 77.0979 35.6912C77.398 36.1217 77.8231 36.4481 78.3148 36.6255C78.8065 36.8029 79.3407 36.8225 79.8439 36.6817C80.3471 36.5409 80.7947 36.2467 81.1252 35.8393L82.4321 36.9151C81.881 37.5944 81.1347 38.0852 80.2955 38.3199C79.4564 38.5547 78.5657 38.5219 77.7458 38.2262C76.9259 37.9304 76.217 37.3861 75.7166 36.6682C75.2161 35.9502 74.9487 35.0938 74.951 34.2165C74.9532 33.3392 75.2251 32.4842 75.7293 31.7689C76.2335 31.0535 76.9452 30.513 77.7666 30.2216C78.588 29.9302 79.4789 29.9021 80.3168 30.1413Z" fill="white"/>
<path fill-rule="evenodd" clip-rule="evenodd" d="M83.7589 31.4387L84.9958 32.7189C85.1287 32.4437 85.7374 31.8358 86.6942 31.7179C87.1875 31.6571 87.7065 31.8424 87.9258 32.2883C88.0886 32.6196 88.2098 33.0961 88.2098 33.7431C86.479 33.4871 82.9177 34.1528 83.5114 36.8156C84.0063 38.3519 85.9852 39.3761 88.4569 37.3277V38.3519H89.9411V33.4745C89.9411 32.4746 89.7389 31.4258 88.9641 30.7936C87.8042 29.8471 85.9123 29.3585 83.7589 31.4387ZM88.203 35.1848C88.2114 34.926 87.9933 34.7235 87.7367 34.7576C86.9026 34.8682 85.755 35.2831 85.3647 36.0579C85.1448 36.4943 85.4977 36.9741 85.9793 37.0565C86.9468 37.2218 88.1469 36.894 88.203 35.1848Z" fill="white"/>
<path fill-rule="evenodd" clip-rule="evenodd" d="M98.441 26.4827H96.4423V30.7299C91.6949 28.981 90.8626 32.562 90.9459 34.4774C90.9459 39.2243 94.9438 38.7247 96.4423 37.2256V38.4748H98.441V26.4827ZM96.193 33.0639C95.6385 31.7974 93.7725 31.807 93.1471 33.04C92.5977 34.1232 92.8949 35.2428 93.4736 36.0224C94.06 36.8124 95.2301 36.6722 95.811 35.878C96.55 34.8675 96.5464 33.8713 96.193 33.0639Z" fill="white"/>
<path d="M109.678 30.0096H107.929V38.2542H109.928V32.7578C109.928 32.0679 110.487 31.5086 111.177 31.5086C111.867 31.5086 112.426 32.0679 112.426 32.7578V38.2542H114.675V32.7578C114.675 32.0679 115.234 31.5086 115.924 31.5086C116.614 31.5086 117.173 32.0679 117.173 32.7578V38.2542H119.172V33.4006C119.172 32.0456 118.61 30.599 117.303 30.2419C115.727 29.8113 114.536 30.5876 113.925 31.2588C112.426 29.0103 110.178 30.2594 109.678 31.009V30.0096Z" fill="white"/>
<path d="M120.421 30.48H122.67L124.668 35.4768L126.417 30.48H128.916L123.919 40.9732H121.92L123.669 37.4755L120.421 30.48Z" fill="white"/>
</svg>
