<svg width="150" height="46" viewBox="0 0 150 46" fill="none" xmlns="http://www.w3.org/2000/svg">
<path d="M66.2512 3.66903C66.2512 5.69537 64.6085 7.33805 62.5822 7.33805C60.5558 7.33805 58.9131 5.69537 58.9131 3.66903C58.9131 1.64268 60.5558 0 62.5822 0C64.6085 0 66.2512 1.64268 66.2512 3.66903Z" fill="white"/>
<path d="M0 0.667153V32.2089H5.54069V0.667153H0Z" fill="white"/>
<path fill-rule="evenodd" clip-rule="evenodd" d="M7.7037 21.0403C7.7037 14.7885 12.6197 9.32654 19.7236 9.32654C27.1125 9.32654 31.7033 15.0709 31.7033 21.0252C31.7033 28.1061 26.1631 32.8243 19.7788 32.8243C13.0517 32.8243 7.7037 28.0176 7.7037 21.0403ZM26.1124 21.0604C26.1124 17.5654 23.376 14.6715 19.6583 14.6715C16.1361 14.6715 13.3347 17.4818 13.3347 21.0704C13.3347 24.3443 15.816 27.4693 19.7587 27.4693C23.0954 27.4693 26.1124 24.766 26.1124 21.0604Z" fill="white"/>
<path fill-rule="evenodd" clip-rule="evenodd" d="M45.6243 9.32654C38.5205 9.32654 33.6045 14.7885 33.6045 21.0403C33.6045 28.0176 38.9525 32.8243 45.6796 32.8243C52.0639 32.8243 57.6041 28.1061 57.6041 21.0252C57.6041 16.8555 55.7983 15.0053 55.7983 15.0053L57.334 14.4787V9.98193H49.4647C49.4647 9.98193 47.7586 9.32654 45.6243 9.32654ZM45.5591 14.6715C49.2768 14.6715 52.0132 17.5654 52.0132 21.0604C52.0132 24.766 48.9962 27.4693 45.6595 27.4693C41.7168 27.4693 39.2355 24.3443 39.2355 21.0704C39.2355 17.4818 42.0369 14.6715 45.5591 14.6715Z" fill="white"/>
<path d="M45.6203 40.1797C48.957 40.1797 51.974 37.4563 51.974 33.7507H57.5649C57.5649 40.8315 52.0247 45.5347 45.6404 45.5347C38.9133 45.5347 33.5653 40.728 33.5653 33.7507H39.1863C39.1863 37.0246 41.6776 40.1797 45.6203 40.1797Z" fill="white"/>
<path d="M59.8234 32.2089V9.98193H65.3641V32.2089H59.8234Z" fill="white"/>
<path d="M70.7441 14.9605V32.2089H76.2848V14.9605H79.3362V9.98193H76.2848V3.15645H70.7441V9.98193H67.773V14.9605H70.7441Z" fill="white"/>
<path fill-rule="evenodd" clip-rule="evenodd" d="M80.054 21.241C80.054 14.7763 84.6553 9.31147 91.7928 9.31147C99.6517 9.31147 103.175 15.7003 103.175 21.7881V23.3138H85.9108C86.7251 26.3016 89.0592 27.931 91.9785 27.931C95.4804 27.931 98.277 24.9147 98.277 24.9147L101.981 28.6236C101.981 28.6236 98.6597 32.8393 91.9082 32.8393C84.6706 32.8393 80.054 27.9216 80.054 21.241ZM97.3636 18.817C96.7798 15.5552 94.1695 14.1897 91.6171 14.1897C88.2256 14.1897 86.2198 16.5241 85.7603 18.817H97.3636Z" fill="white"/>
<path d="M117.034 32.8422C109.876 32.8422 104.999 27.3906 104.999 20.9629C104.999 14.3294 110.511 9.3073 117.011 9.3073C123.295 9.3073 126.511 13.7431 126.511 13.7431L122.646 17.5906C122.646 17.5906 120.407 14.6979 116.985 14.6979C113.192 14.6979 110.599 17.5992 110.599 21.0479C110.599 24.6894 113.357 27.4833 116.942 27.4833C120.419 27.4833 122.64 24.5951 122.64 24.5951L126.544 28.4407C126.544 28.4407 123.359 32.8422 117.034 32.8422Z" fill="white"/>
<path d="M128.56 0.586854V32.225H134.101V20.2603C134.101 16.3876 136.684 14.7304 139.596 14.7304C142.152 14.7304 144.459 16.2678 144.459 19.9735V32.225H150V19.1361C150 13.6201 146.639 9.3073 140.837 9.3073C136.222 9.3073 134.101 12.2108 134.101 12.2108V0.586854H128.56Z" fill="white"/>
</svg>
